<?xml version="1.0" encoding="iso-8859-1"?>
<!-- Generator: Adobe Illustrator 18.0.0, SVG Export Plug-In . SVG Version: 6.00 Build 0)  -->
<!DOCTYPE svg PUBLIC "-//W3C//DTD SVG 1.1//EN" "http://www.w3.org/Graphics/SVG/1.1/DTD/svg11.dtd">
<svg version="1.1" id="Capa_1" xmlns="http://www.w3.org/2000/svg" xmlns:xlink="http://www.w3.org/1999/xlink" x="0px" y="0px"
	 viewBox="0 0 296.525 296.525" style="enable-background:new 0 0 296.525 296.525;" xml:space="preserve">
<path d="M38.434,48.497C17.63,69.301-2.793,115.016,0.315,158.739c1.586,22.314,10.702,40.709,22.029,57.658
	c10.088,15.096,22.885,32.639,39.859,46.043c17.178,13.564,44.533,29.736,77.303,29.738c0,0,0.004,0,0.006,0
	c15.613,0,30.887-4.77,45.987-9.916c27.969-9.533,68.901-28.525,92.489-62.488c14.613-21.037,18.823-44.042,18.521-67.621
	c-0.371-28.942-10.047-74.635-37.902-105.822c-18.604-20.828-42.243-30.061-67.52-35.068c-14.848-2.941-31.527-6.916-48.693-6.916
	c-23.859,0-46.135,5.01-64.414,14.486C68.934,23.524,50.605,36.326,38.434,48.497z M276.325,134.118
	c-0.762,1.619-20.184,41.273-64.666,41.277c-0.002,0-0.006,0-0.008,0c-3.414,0-6.932-0.236-10.518-0.686
	c-1.383-16.641,4.615-36.059,10.199-48.094c16.648-35.893,9.176-64.75-0.025-82.637c-1.793-3.488-3.721-6.699-5.676-9.621
	c14.191,4.184,26.984,12.598,38.209,25.164C262.539,80.458,273.629,110.276,276.325,134.118z M124.565,177.589
	c-2.225-15.064-6.783-29.012-13.254-40.205c-0.703-1.215-1.428-2.381-2.168-3.52c12.721-8.172,23.395-17.984,30.813-28.299
	c14.863,14.422,31.502,24.383,47.246,28.473c-4.154,12.813-6.285,25.738-6.043,37.213c-6.027-0.803-12.08-1.221-17.906-1.221
	C148.096,170.03,135.061,172.647,124.565,177.589z M173.032,27.368c0.107,0.084,12.926,10.615,20.668,25.668
	c10.018,19.479,10.318,40.475,0.914,62.445c-16.771-3.385-34.01-16.49-45.514-28.875c-19.184-20.65-42.818-31.567-68.346-31.567
	c-6.959,0-13.428,0.801-19.174,1.98c23.371-29.232,62.723-32.871,80.814-32.871C152.846,24.149,163.405,25.3,173.032,27.368z
	 M125.59,90.997c-7.629,11.85-21.719,24.277-38.412,32.629c-35.379,17.697-47.506,44.928-51.449,64.652
	c-0.768,3.844-1.26,7.553-1.549,11.053c-8.233-11.748-12.963-25.795-14.113-41.994c-1.809-25.416,5.896-52.703,16.805-73.004
	c0.02,0.008-0.02-0.006,0,0c0.002-0.008,0,0,0,0c0.15-0.088,23.732-9.492,43.883-9.492C96.864,74.841,112.356,80.278,125.59,90.997
	C125.588,90.999,125.592,90.995,125.59,90.997z M54.723,228.231c-0.521-2.148-11.492-57.357,37.115-84.664
	c8.631,12.479,13.375,30.865,14.301,48.49c2.074,39.518,22.176,61.521,38.674,73.022c3.205,2.234,6.398,4.164,9.482,5.824
	c-4.85,0.98-9.783,1.473-14.783,1.473c-0.002,0-0.004,0-0.004,0C106.934,272.374,74.963,251.315,54.723,228.231z M261.725,208.479
	c-19.162,27.592-53.258,47.346-78.238,52.49c-5.104-1.002-49.76-11.189-56.787-61.686c10.576-7.906,26.104-9.453,36.553-9.453
	c8.133,0,16.807,0.953,25.084,2.756c7.955,1.732,15.797,2.609,23.314,2.609c0.002,0,0.008,0,0.01,0
	c31.318-0.004,52.488-14.613,65.412-28.221C276.104,181.268,270.977,195.159,261.725,208.479z"/>
<g>
</g>
<g>
</g>
<g>
</g>
<g>
</g>
<g>
</g>
<g>
</g>
<g>
</g>
<g>
</g>
<g>
</g>
<g>
</g>
<g>
</g>
<g>
</g>
<g>
</g>
<g>
</g>
<g>
</g>
</svg>
