<?xml version="1.0" encoding="iso-8859-1"?>
<!-- Generator: Adobe Illustrator 18.0.0, SVG Export Plug-In . SVG Version: 6.00 Build 0)  -->
<!DOCTYPE svg PUBLIC "-//W3C//DTD SVG 1.1//EN" "http://www.w3.org/Graphics/SVG/1.1/DTD/svg11.dtd">
<svg version="1.1" id="Capa_1" xmlns="http://www.w3.org/2000/svg" xmlns:xlink="http://www.w3.org/1999/xlink" x="0px" y="0px"
	 viewBox="0 0 374.156 374.156" style="enable-background:new 0 0 374.156 374.156;" xml:space="preserve">
<g>
	<g>
		<g>
			<g>
				<g>
					<path d="M222.963,136.113c-1.98,0-3.91-0.811-5.311-2.2c-1.391-1.4-2.189-3.33-2.189-5.3c0-1.98,0.799-3.91,2.189-5.31
						c1.4-1.39,3.33-2.189,5.311-2.189c1.97,0,3.899,0.8,5.299,2.189c1.4,1.4,2.201,3.33,2.201,5.31c0,1.97-0.801,3.9-2.201,5.3
						C226.862,135.303,224.933,136.113,222.963,136.113z"/>
				</g>
				<g>
					<path d="M174.922,157.483c-1.969,0-3.91-0.801-5.299-2.2c-1.4-1.4-2.201-3.33-2.201-5.3c0-1.98,0.801-3.91,2.201-5.311
						c1.389-1.39,3.319-2.189,5.299-2.189c1.971,0,3.91,0.8,5.301,2.189c1.4,1.4,2.199,3.33,2.199,5.311
						c0,1.97-0.799,3.899-2.199,5.3C178.822,156.683,176.893,157.483,174.922,157.483z"/>
				</g>
				<g>
					<path d="M206.502,159.863c-1.97,0-3.91-0.8-5.299-2.19c-1.4-1.399-2.201-3.33-2.201-5.3c0-1.98,0.801-3.91,2.201-5.31
						c1.389-1.4,3.329-2.2,5.299-2.2c1.98,0,3.91,0.8,5.301,2.2c1.4,1.399,2.199,3.33,2.199,5.31c0,1.97-0.799,3.9-2.199,5.3
						C210.412,159.063,208.482,159.863,206.502,159.863z"/>
				</g>
			</g>
			<path d="M254.656,57.737c-1.008-0.333-2.045-0.42-3.057-0.323V57.23c0-13.879-4.067-24.569-11.762-30.917
				c-4.607-3.801-12.86-7.796-26.02-5.251c-3.354,0.648-6.299,1.964-8.896,3.125c-6.624,2.957-9.102,4.063-16.027-5.494
				C175.069-0.388,155.714-0.145,152.453,0.037c-17.617,0.119-29.896,12.484-29.896,30.153v27.219
				c-1.01-0.097-2.044-0.011-3.05,0.32c-3.079,1.011-5.159,3.885-5.159,7.125v275.099c0,18.859,15.232,34.203,33.955,34.203h77.551
				c18.723,0,33.955-15.344,33.955-34.203V64.855C259.809,61.618,257.729,58.752,254.656,57.737z M137.557,30.19
				c0-14.062,11.599-15.154,15.154-15.154c0.234,0,0.471-0.011,0.705-0.033c0.134-0.015,13.482-1.104,23.332,12.491
				c14.071,19.42,26.729,13.766,34.291,10.39c2.041-0.912,3.969-1.773,5.631-2.095c5.957-1.151,10.539-0.447,13.623,2.096
				c4.008,3.306,6.307,10.357,6.307,19.346v14.002c-0.939,0.943-1.967,1.938-3.035,2.953c-2.444-4.444-6.619-8.806-13.655-11.913
				c-1.192-4.304-3.593-8.181-7.005-11.225c-4.689-4.183-10.729-6.295-16.998-5.93c-8.744,0.499-16.057,5.613-19.691,12.891
				c-3.594-1.157-7.397-1.651-11.23-1.437c-8.221,0.47-15.743,3.913-21.182,9.696c-2.059,2.19-3.739,4.637-5.021,7.264
				c-0.415-0.456-0.824-0.909-1.225-1.358V30.19z M221.551,84.489c-9.548,7.379-21.625,14.916-35.859,20.135
				c-10.918-0.145-23.77-8.897-34.843-18.974c0.201-3.432,1.541-6.616,3.882-9.106c2.795-2.972,6.74-4.746,11.109-4.996
				c3.883-0.209,7.703,0.987,10.758,3.403c2.287,1.809,5.416,2.13,8.02,0.818c2.605-1.309,4.217-4.009,4.13-6.923
				c-0.138-4.644,3.384-8.489,8.015-8.753c2.275-0.137,4.459,0.633,6.157,2.148c1.698,1.516,2.706,3.602,2.835,5.878
				c0.135,2.326,1.281,5.438,5.987,7.053C217.612,77.188,220.68,80.058,221.551,84.489z M129.348,85.388
				c2.667,2.872,5.648,5.926,8.869,8.98c8.247,7.822,16.142,13.819,23.645,18.012c-12.48,5.225-23.947,13.06-32.514,21.865V85.388z
				 M129.348,339.953V188.695h88.195v170.461h-69.24C137.851,359.156,129.348,350.542,129.348,339.953z M244.809,339.953
				c0,8.2-5.11,15.197-12.266,17.944V188.695h12.266V339.953z M244.809,173.695H129.348v-11.461
				c2.139-11.758,21.941-32.731,48.951-39.617c30.425-7.756,53.18-25.427,66.51-38.316V173.695z"/>
		</g>
	</g>
</g>
<g>
</g>
<g>
</g>
<g>
</g>
<g>
</g>
<g>
</g>
<g>
</g>
<g>
</g>
<g>
</g>
<g>
</g>
<g>
</g>
<g>
</g>
<g>
</g>
<g>
</g>
<g>
</g>
<g>
</g>
</svg>
