<?xml version="1.0" encoding="iso-8859-1"?>
<!-- Generator: Adobe Illustrator 18.1.1, SVG Export Plug-In . SVG Version: 6.00 Build 0)  -->
<svg version="1.1" id="Capa_1" xmlns="http://www.w3.org/2000/svg" xmlns:xlink="http://www.w3.org/1999/xlink" x="0px" y="0px"
	 viewBox="0 0 423.661 423.661" style="enable-background:new 0 0 423.661 423.661;" xml:space="preserve">
<g>
	<g>
		<path style="fill:#010002;" d="M203.637,211.92c0-92.308-46.626-170.286-101.819-170.286c-4.991,0-9.876,0.845-14.696,2.073
			C38.611,56.063,0,127.96,0,211.92c0,84.358,38.977,156.548,87.805,168.392c4.601,1.114,9.258,1.894,14.014,1.894
			C157.012,382.206,203.637,304.22,203.637,211.92z M101.819,352.959c-4.804,0-9.486-0.845-14.071-2.17
			c-39.212-11.364-69.093-69.125-69.093-138.869c0-69.41,29.588-126.976,68.532-138.722c4.763-1.439,9.632-2.317,14.64-2.317
			c45.935,0,83.172,63.143,83.172,141.039C184.99,289.808,147.753,352.959,101.819,352.959z"/>
		<path style="fill:#010002;" d="M44.829,283.273c10.031,26.54,25.345,46.113,42.886,53.071c2.365,0.935,4.763,1.666,7.194,2.13
			V229.478l-7.397,7.95L44.829,283.273z"/>
		<path style="fill:#010002;" d="M108.728,338.474c20.817-3.983,39.237-25.694,50.576-56.502l-50.576-52.844V338.474z"/>
		<path style="fill:#010002;" d="M91.56,212.798l-4.097-3.113l-51.056-38.798c-2.495,12.957-3.934,26.735-3.934,41.033
			c0,20.086,2.756,39.196,7.503,56.29l47.503-51.015L91.56,212.798z"/>
		<path style="fill:#010002;" d="M94.048,197.329l-6.43-109.793c-0.138,0.057-0.268,0.138-0.406,0.195
			c-20.59,8.478-38.017,34.351-47.373,68.402l47.585,36.164L94.048,197.329z"/>
		<path style="fill:#010002;" d="M101.819,84.692c-0.179,0-0.35,0.049-0.52,0.049l6.478,110.736l51.202-54.51
			C146.355,107.289,125.221,84.692,101.819,84.692z"/>
		<path style="fill:#010002;" d="M163.775,156.044l-52.437,55.827l52.673,55.03c4.528-16.761,7.153-35.408,7.153-54.982
			C171.172,191.997,168.448,173.033,163.775,156.044z"/>
		<path style="fill:#010002;" d="M393.106,168.237c-1.561,0-3.064,0.236-4.56,0.463C369.111,97.722,295.937,43.74,134.544,35.335
			c47.926,22.476,82.92,93.007,82.92,176.585c0,83.359-34.807,153.736-82.529,176.406c176.398-9.876,247.247-74.011,257.708-154.784
			c0.163,0,0.309,0.049,0.471,0.049c16.867,0,30.547-13.672,30.547-30.547v-4.259C423.653,181.909,409.981,168.237,393.106,168.237z
			"/>
	</g>
</g>
<g>
</g>
<g>
</g>
<g>
</g>
<g>
</g>
<g>
</g>
<g>
</g>
<g>
</g>
<g>
</g>
<g>
</g>
<g>
</g>
<g>
</g>
<g>
</g>
<g>
</g>
<g>
</g>
<g>
</g>
</svg>
