<?xml version="1.0" encoding="iso-8859-1"?>
<!-- Generator: Adobe Illustrator 18.0.0, SVG Export Plug-In . SVG Version: 6.00 Build 0)  -->
<!DOCTYPE svg PUBLIC "-//W3C//DTD SVG 1.1//EN" "http://www.w3.org/Graphics/SVG/1.1/DTD/svg11.dtd">
<svg version="1.1" id="Capa_1" xmlns="http://www.w3.org/2000/svg" xmlns:xlink="http://www.w3.org/1999/xlink" x="0px" y="0px"
	 viewBox="0 0 373.714 373.714" style="enable-background:new 0 0 373.714 373.714;" xml:space="preserve">
<g>
	<path d="M358.776,231.13c1.061-2.427,1.656-5.102,1.656-7.915c0-9.75-7.064-17.865-16.34-19.538
		c0.63-2.126,0.978-4.397,0.978-6.763c0-2.359-0.354-4.623-0.979-6.746c16.7-2.243,29.622-16.575,29.622-33.879
		c0-18.379-20.006-34.16-57.855-45.638c-34.563-10.481-80.376-16.254-129.002-16.254c-48.625,0-94.438,5.772-129.001,16.254
		C20.007,122.129,0,137.91,0,156.289c0,17.304,12.924,31.636,29.623,33.879c-0.625,2.123-0.978,4.387-0.978,6.746
		c0,2.365,0.348,4.637,0.977,6.763c-9.274,1.674-16.338,9.788-16.338,19.538c0,2.814,0.605,5.482,1.669,7.908
		c-8.046,4.324-13.53,12.821-13.53,22.578c0,14.124,11.49,25.615,25.614,25.615h319.643c14.124,0,25.615-11.491,25.615-25.615
		C372.294,243.95,366.815,235.457,358.776,231.13z M253.54,132.993l17.213-17.211c3.234,0.53,6.418,1.093,9.545,1.686
		l-21.035,21.248c-1.576,1.577-4.145,1.578-5.721,0.001C251.964,137.139,251.963,134.57,253.54,132.993z M193.887,109.442
		c3.704,0.044,7.39,0.119,11.049,0.23l-28.868,29.043c-1.578,1.575-4.145,1.578-5.723,0.001c-1.578-1.578-1.578-4.146,0-5.725
		L193.887,109.442z M87.147,132.993l17.482-17.481c4.34-0.692,8.771-1.328,13.284-1.907l-25.043,25.111
		c-1.579,1.575-4.146,1.578-5.722,0.001C85.571,137.139,85.57,134.57,87.147,132.993z M15,156.289
		c0-8.202,12.402-20.729,47.21-31.283c5.088-1.543,10.438-2.979,16.018-4.306l-1.687,1.687c-7.425,7.426-7.425,19.51,0.001,26.936
		c3.713,3.711,8.588,5.567,13.465,5.567c4.879,0,9.76-1.858,13.477-5.575l38.049-38.151c10.081-0.803,20.45-1.338,31.015-1.592
		l-12.81,12.815c-7.425,7.426-7.425,19.51,0.002,26.936c3.711,3.71,8.584,5.565,13.46,5.565c4.882,0,9.767-1.86,13.49-5.582
		l38.427-38.66c9.262,0.615,18.301,1.455,27.051,2.507l-9.233,9.233c-7.425,7.426-7.425,19.51,0.001,26.936
		c3.71,3.709,8.581,5.564,13.457,5.564c4.885,0,9.774-1.862,13.504-5.592l27.783-28.063c4.791,1.177,9.409,2.434,13.826,3.773
		c34.808,10.555,47.209,23.081,47.209,31.283c0,10.583-8.61,19.193-19.194,19.193H34.195C23.611,175.482,15,166.872,15,156.289z
		 M330.07,196.914c0,3.68-2.067,6.43-3.915,6.43H248.51c-1.849,0-3.915-2.75-3.915-6.43c0-3.681,2.066-6.432,3.915-6.432h77.646
		C328.003,190.482,330.07,193.233,330.07,196.914z M229.595,196.914c0,3.68-2.066,6.43-3.914,6.43h-77.646
		c-1.848,0-3.914-2.75-3.914-6.43c0-3.681,2.066-6.432,3.914-6.432h77.646C227.528,190.482,229.595,193.233,229.595,196.914z
		 M129.12,196.914c0,3.68-2.066,6.43-3.915,6.43H47.56c-1.849,0-3.915-2.75-3.915-6.43c0-3.681,2.066-6.432,3.915-6.432h77.646
		C127.054,190.482,129.12,193.233,129.12,196.914z M33.154,218.344H340.56c2.687,0,4.872,2.186,4.872,4.871
		c0,2.686-2.186,4.871-4.872,4.871H33.154c-2.686,0-4.871-2.186-4.871-4.871C28.283,220.529,30.469,218.344,33.154,218.344z
		 M346.679,264.316H27.036c-5.853,0-10.614-4.762-10.614-10.615c0-5.854,4.762-10.615,10.614-10.615h319.643
		c5.853,0,10.615,4.762,10.615,10.615C357.294,259.555,352.532,264.316,346.679,264.316z"/>
</g>
<g>
</g>
<g>
</g>
<g>
</g>
<g>
</g>
<g>
</g>
<g>
</g>
<g>
</g>
<g>
</g>
<g>
</g>
<g>
</g>
<g>
</g>
<g>
</g>
<g>
</g>
<g>
</g>
<g>
</g>
</svg>
